#!OML:ASF Y:\EmotionMaleHayes\Project 1\Capture day 1\Session 1\Male1.ASF
:FULLY-SPECIFIED
:DEGREES
50
root -30.0417 17.053 0.852602 51.5547 86.0092 51.2282
lowerback 3.78977 1.41267 -6.02233
upperback -0.0889001 1.6141 -0.542138
thorax -2.37003 0.878578 2.72083
lowerneck -20.431 3.47003 4.62178
upperneck 25.4382 4.29379 -2.18034
head 11.8928 2.19429 -0.874515
rclavicle -6.97299e-015 4.57205e-015
rhumerus -34.2663 7.09415 -91.6843
rradius 29.8687
rwrist 5.50715
rhand -10.0788 -30.2989
rfingers 7.12502
rthumb 15.9078 -59.6656
lclavicle -6.97299e-015 4.57205e-015
lhumerus -31.6421 -7.43386 92.4009
lradius 21.945
lwrist -20.5182
lhand -14.2564 -27.5727
lfingers 7.12502
lthumb 11.8819 2.07021
rfemur 8.75163 -3.13981 9.73341
rtibia 2.32963
rfoot -14.8252 -3.06091
rtoes 6.56709
lfemur 11.5974 -3.04481 -18.6104
ltibia -3.20097
lfoot -10.5551 12.0993
ltoes -18.7364
51
root -30.041 17.0534 0.853248 50.05 86.0216 49.6903
lowerback 3.73552 1.43208 -5.95547
upperback -0.098612 1.64651 -0.515259
thorax -2.35144 0.893563 2.7103
lowerneck -20.2502 3.43033 4.73272
upperneck 25.276 4.27257 -2.41922
head 11.8022 2.16504 -0.988592
rclavicle -4.13099e-016 -1.07344e-014
rhumerus -34.2631 7.0145 -91.6339
rradius 29.7907
rwrist 5.59758
rhand -10.1651 -30.0259
rfingers 7.12502
rthumb 15.8246 -59.3991
lclavicle -4.13099e-016 -1.07344e-014
lhumerus -31.4749 -7.35964 92.3906
lradius 21.6205
lwrist -20.6061
lhand -14.3423 -27.4871
lfingers 7.12502
lthumb 11.7991 2.16049
rfemur 8.68104 -3.16778 9.82521
rtibia 2.372
rfoot -14.8941 -2.98847
rtoes 6.52255
lfemur 11.5304 -2.85843 -18.453
ltibia -3.11761
lfoot -10.5969 11.9811
ltoes -18.8666
52
root -30.0423 17.0538 0.854844 49.8499 86.0868 49.4922
lowerback 3.75464 1.4198 -5.91398
upperback -0.116644 1.63002 -0.493626
thorax -2.37877 0.885908 2.70978
lowerneck -19.7622 3.47519 5.20077
upperneck 24.6544 4.3604 -3.0583
head 11.5003 2.16598 -1.29666
rclavicle -2.53761e-015 -1.41137e-014
rhumerus -34.3135 6.99609 -91.598
rradius 29.7311
rwrist 5.69224
rhand -10.2017 -29.6901
rfingers 7.12502
rthumb 15.7894 -59.0661
lclavicle -2.53761e-015 -1.41137e-014
lhumerus -31.5932 -7.40435 92.4116
lradius 21.7283
lwrist -20.6523
lhand -13.6348 -27.5108
lfingers 7.12502
lthumb 12.4813 2.09645
rfemur 8.7023 -3.01222 9.95447
rtibia 2.32359
rfoot -14.8808 -3.12266
rtoes 7.2385
lfemur 11.3822 -2.3594 -18.1823
ltibia -2.85553
lfoot -10.5485 11.4617
ltoes -19.5049
53
root -30.0439 17.0538 0.855289 50.4645 86.1343 50.12
lowerback 3.79108 1.39885 -5.9085
upperback -0.12956 1.59927 -0.48937
thorax -2.40978 0.871599 2.71203
lowerneck -20.1634 3.47975 4.63949
upperneck 25.1458 4.3082 -2.20272
head 11.7286 2.1997 -0.888361
rclavicle 8.63471e-016 7.45443e-015
rhumerus -34.3493 7.03209 -91.6089
rradius 29.75
rwrist 5.63897
rhand -10.1595 -29.5983
rfingers 7.12502
rthumb 15.8301 -58.9712
lclavicle 8.63471e-016 7.45443e-015
lhumerus -31.5597 -7.40552 92.4068
lradius 21.6088
lwrist -20.697
lhand -13.8485 -27.2186
lfingers 7.12502
lthumb 12.2752 2.40113
rfemur 8.74817 -2.93132 10.0016
rtibia 2.27505
rfoot -14.8499 -3.24483
rtoes 7.6835
lfemur 11.4693 -2.68024 -18.2693
ltibia -3.01653
lfoot -10.5039 11.7279
ltoes -19.6113
54
root -30.0435 17.0532 0.855318 50.8 86.0663 50.4735
lowerback 3.8163 1.4107 -5.99208
upperback -0.166098 1.60801 -0.50003
thorax -2.46472 0.879213 2.74604
lowerneck -20.1843 3.47817 4.40466
upperneck 25.2721 4.28799 -1.84772
head 11.7655 2.21619 -0.719633
rclavicle 1.15544e-015 1.46107e-014
rhumerus -34.4594 7.12713 -91.6396
rradius 29.8201
rwrist 5.4768
rhand -10.1274 -29.5571
rfingers 7.12502
rthumb 15.861 -58.9275
lclavicle 1.15544e-015 1.46107e-014
lhumerus -31.5963 -7.46316 92.4449
lradius 21.543
lwrist -20.6349
lhand -12.5981 -27.3174
lfingers 7.12502
lthumb 13.4806 2.22632
rfemur 8.78369 -2.84703 9.93739
rtibia 2.23193
rfoot -14.9277 -3.28474
rtoes 8.0287
lfemur 11.5296 -2.65045 -18.3504
ltibia -3.0954
lfoot -10.4764 11.7171
ltoes -19.2078
55
root -30.0426 17.0518 0.855534 50.7685 85.9824 50.4353
lowerback 3.76755 1.42865 -6.04593
upperback -0.174933 1.63233 -0.537023
thorax -2.4492 0.891739 2.73732
lowerneck -20.1257 3.48358 4.41557
upperneck 25.2424 4.27523 -1.78247
head 11.7408 2.22066 -0.70029
rclavicle -2.47238e-015 6.16232e-015
rhumerus -34.5139 7.16335 -91.6763
rradius 29.8527
rwrist 5.41556
rhand -10.1362 -29.3772
rfingers 7.12502
rthumb 15.8525 -58.7482
lclavicle -2.47238e-015 6.16232e-015
lhumerus -31.7131 -7.57531 92.4524
lradius 21.7193
lwrist -20.5201
lhand -12.45 -27.2124
lfingers 7.12502
lthumb 13.6233 2.32182
rfemur 8.77062 -2.76662 9.87725
rtibia 2.22482
rfoot -14.9915 -3.31114
rtoes 7.81606
lfemur 11.3654 -1.94087 -18.1936
ltibia -2.77105
lfoot -10.4916 11.0511
ltoes -19.0278
56
root -30.044 17.0513 0.856094 49.7014 86.0609 49.3302
lowerback 3.72088 1.41983 -5.94167
upperback -0.172004 1.62878 -0.508969
thorax -2.41737 0.887693 2.70942
lowerneck -20.022 3.49942 4.60113
upperneck 25.0698 4.30401 -2.02981
head 11.6662 2.21806 -0.820763
rclavicle 3.5657e-015 -1.09332e-014
rhumerus -34.4968 7.14169 -91.6696
rradius 29.8499
rwrist 5.44362
rhand -10.1611 -29.3359
rfingers 7.12502
rthumb 15.8285 -58.7088
lclavicle 3.5657e-015 -1.09332e-014
lhumerus -31.724 -7.63669 92.4599
lradius 21.7963
lwrist -20.4676
lhand -13.2979 -27.2842
lfingers 7.12502
lthumb 12.806 2.30298
rfemur 8.70955 -2.74252 10.0386
rtibia 2.25621
rfoot -14.9018 -3.37721
rtoes 7.26096
lfemur 11.2993 -2.02295 -18.0838
ltibia -2.69753
lfoot -10.5514 11.1138
ltoes -18.6211
57
root -30.0455 17.0518 0.855347 48.3113 86.1832 47.9483
lowerback 3.74927 1.41184 -5.7733
upperback -0.169967 1.62386 -0.465246
thorax -2.42713 0.883281 2.66014
lowerneck -19.7333 3.50507 4.97616
upperneck 24.6967 4.34821 -2.59506
head 11.4928 2.19982 -1.09044
rclavicle -1.20109e-014 1.17283e-014
rhumerus -34.464 7.11199 -91.6481
rradius 29.7932
rwrist 5.47072
rhand -10.1392 -29.4094
rfingers 7.12502
rthumb 15.8496 -58.7807
lclavicle -1.20109e-014 1.17283e-014
lhumerus -31.6907 -7.54773 92.4259
lradius 21.7656
lwrist -20.5842
lhand -13.7524 -27.3526
lfingers 7.12502
lthumb 12.3678 2.26157
rfemur 8.71713 -2.72146 10.2456
rtibia 2.24881
rfoot -14.8223 -3.41424
rtoes 7.27635
lfemur 11.4114 -2.51097 -18.0599
ltibia -2.88869
lfoot -10.5428 11.5708
ltoes -18.3195
58
root -30.0449 17.0505 0.853268 48.3038 86.1805 47.9725
lowerback 3.78783 1.40931 -5.75944
upperback -0.182363 1.61795 -0.463791
thorax -2.46075 0.88125 2.65318
lowerneck -19.5074 3.51153 5.23496
upperneck 24.4845 4.3811 -2.96178
head 11.3856 2.19317 -1.2666
rclavicle -1.16413e-014 2.98177e-016
rhumerus -34.4578 7.14459 -91.6519
rradius 29.708
rwrist 5.44873
rhand -10.0916 -29.4473
rfingers 7.12502
rthumb 15.8955 -58.815
lclavicle -1.16413e-014 2.98177e-016
lhumerus -31.7447 -7.52729 92.4338
lradius 21.7898
lwrist -20.5922
lhand -13.546 -27.2265
lfingers 7.12502
lthumb 12.5668 2.37555
rfemur 8.7618 -2.77376 10.2129
rtibia 2.23815
rfoot -14.8488 -3.35792
rtoes 6.75102
lfemur 11.3769 -2.08434 -17.9287
ltibia -2.77216
lfoot -10.4772 11.1671
ltoes -19.1433
59
root -30.0439 17.0491 0.852459 47.9173 86.167 47.6015
lowerback 3.78151 1.41891 -5.74584
upperback -0.191425 1.63134 -0.466919
thorax -2.46728 0.888061 2.64149
lowerneck -19.4329 3.51571 5.30375
upperneck 24.4518 4.38953 -3.0353
head 11.3628 2.19509 -1.30467
rclavicle -2.08569e-014 -1.90833e-014
rhumerus -34.5135 7.16258 -91.6709
rradius 29.7192
rwrist 5.4542
rhand -10.0955 -29.4797
rfingers 7.12502
rthumb 15.8917 -58.8476
lclavicle -2.08569e-014 -1.90833e-014
lhumerus -31.8132 -7.5359 92.4465
lradius 21.8429
lwrist -20.5812
lhand -13.7554 -26.964
lfingers 7.12502
lthumb 12.3649 2.65029
rfemur 8.76615 -2.85189 10.1857
rtibia 2.27035
rfoot -14.903 -3.25996
rtoes 6.25482
lfemur 11.3941 -1.81091 -17.8399
ltibia -2.76524
lfoot -10.4526 10.9478
ltoes -19.7912
60
root -30.0446 17.0495 0.85272 47.5205 86.2245 47.2111
lowerback 3.79903 1.42162 -5.67685
upperback -0.198334 1.63649 -0.464795
thorax -2.48276 0.890207 2.60425
lowerneck -19.4365 3.51083 5.3472
upperneck 24.4671 4.37729 -3.06298
head 11.3706 2.19034 -1.32396
rclavicle 2.70844e-015 -1.5207e-014
rhumerus -34.5794 7.09337 -91.6644
rradius 29.7906
rwrist 5.53033
rhand -10.0639 -29.3955
rfingers 7.12502
rthumb 15.9221 -58.761
lclavicle 2.70844e-015 -1.5207e-014
lhumerus -31.8387 -7.5702 92.4479
lradius 21.8352
lwrist -20.5809
lhand -14.2447 -26.9002
lfingers 7.12502
lthumb 11.8932 2.74197
rfemur 8.78316 -2.79809 10.277
rtibia 2.23798
rfoot -14.9269 -3.26847
rtoes 7.3859
lfemur 11.5813 -2.58242 -18.0291
ltibia -3.09594
lfoot -10.501 11.6895
ltoes -19.1893
61
root -30.0469 17.0492 0.852865 48.2169 86.2298 47.8978
lowerback 3.81808 1.4118 -5.70139
upperback -0.211356 1.62035 -0.478671
thorax -2.50584 0.883303 2.60404
lowerneck -19.464 3.51299 5.34987
upperneck 24.5157 4.37376 -3.03846
head 11.3937 2.19239 -1.31557
rclavicle -8.28684e-015 -4.47266e-015
rhumerus -34.6191 7.09205 -91.6706
rradius 29.8455
rwrist 5.49788
rhand -10.0008 -29.3422
rfingers 7.12502
rthumb 15.9829 -58.7029
lclavicle -8.28684e-015 -4.47266e-015
lhumerus -31.836 -7.58298 92.4195
lradius 21.7753
lwrist -20.593
lhand -14.4266 -26.958
lfingers 7.12502
lthumb 11.7177 2.69429
rfemur 8.77922 -2.75371 10.263
rtibia 2.21148
rfoot -14.9005 -3.32891
rtoes 8.12449
lfemur 11.5589 -2.83241 -18.1351
ltibia -3.09693
lfoot -10.5364 11.8699
ltoes -18.6087
62
root -30.0488 17.0482 0.853192 46.6473 86.3409 46.3357
lowerback 3.83416 1.40169 -5.55377
upperback -0.221689 1.61237 -0.437735
thorax -2.52176 0.877942 2.56376
lowerneck -19.451 3.51778 5.36044
upperneck 24.5456 4.38288 -3.04696
head 11.4034 2.19721 -1.31914
rclavicle -1.03337e-014 2.50469e-014
rhumerus -34.6827 7.18516 -91.7234
rradius 29.9332
rwrist 5.41078
rhand -9.99979 -29.564
rfingers 7.12502
rthumb 15.9839 -58.9246
lclavicle -1.03337e-014 2.50469e-014
lhumerus -31.8554 -7.44258 92.3356
lradius 21.7715
lwrist -20.7335
lhand -14.4328 -27.041
lfingers 7.12502
lthumb 11.7118 2.61162
rfemur 8.76467 -2.75409 10.4584
rtibia 2.24358
rfoot -14.8535 -3.38721
rtoes 7.61199
lfemur 11.3906 -2.15918 -17.7005
ltibia -2.78218
lfoot -10.5274 11.1691
ltoes -18.3561
63
root -30.0508 17.0481 0.853597 44.9708 86.4797 44.6829
lowerback 3.88209 1.39661 -5.37022
upperback -0.237153 1.61051 -0.401517
thorax -2.56025 0.875727 2.49728
lowerneck -19.379 3.50951 5.40375
upperneck 24.5079 4.37435 -3.09587
head 11.377 2.1921 -1.34657
rclavicle -1.62755e-015 1.59028e-014
rhumerus -34.7018 7.16662 -91.7561
rradius 29.9371
rwrist 5.45698
rhand -9.97753 -29.8412
rfingers 7.12502
rthumb 16.0053 -59.2001
lclavicle -1.62755e-015 1.59028e-014
lhumerus -31.8821 -7.30035 92.2535
lradius 21.7554
lwrist -20.946
lhand -13.9894 -27.3232
lfingers 7.12502
lthumb 12.1393 2.30462
rfemur 8.78412 -2.7346 10.6884
rtibia 2.25321
rfoot -14.8635 -3.43925
rtoes 7.51291
lfemur 11.3044 -1.75156 -17.3354
ltibia -2.58191
lfoot -10.5339 10.7428
ltoes -18.2189
64
root -30.0517 17.048 0.85199 45.4943 86.4735 45.2079
lowerback 3.89998 1.39257 -5.37665
upperback -0.252694 1.60299 -0.410637
thorax -2.58568 0.872925 2.49131
lowerneck -19.3326 3.51035 5.37858
upperneck 24.4665 4.37858 -3.07499
head 11.3513 2.19456 -1.33458
rclavicle 9.05091e-015 6.16232e-015
rhumerus -34.7254 7.18163 -91.7649
rradius 29.9201
rwrist 5.5132
rhand -9.97579 -29.9494
rfingers 7.12502
rthumb 16.007 -59.3081
lclavicle 9.05091e-015 6.16232e-015
lhumerus -31.8725 -7.20038 92.2298
lradius 21.688
lwrist -21.0902
lhand -13.6074 -27.5489
lfingers 7.12502
lthumb 12.5077 2.05679
rfemur 8.77822 -2.81131 10.6299
rtibia 2.28712
rfoot -14.8557 -3.3707
rtoes 7.59185
lfemur 11.3507 -2.11054 -17.5049
ltibia -2.68795
lfoot -10.579 11.0925
ltoes -18.4987
